# File exported by Houdini 20.5.613 (www.sidefx.com)
# 1002 points
# 6000 vertices
# 2000 primitives
# Bounds: [-0.530062675, -0.525057077, -0.506509006] to [0.536437273, 0.488792807, 0.681640685]
g 
v 9.74580594e-09 1.13653725e-10 -0.461953282
v -3.59365715e-09 0.0510764979 -0.457610458
v 0.0505134314 0.0164128356 -0.4768278
v 1.01034443e-08 0.102064379 -0.452887475
v 0.0523785166 0.0720928907 -0.467344463
v 0.105939798 0.0344219841 -0.494909495
v 1.33063088e-10 0.154362902 -0.447397977
v 0.053677395 0.124587558 -0.451564759
v 0.104792796 0.0920690224 -0.464391768
v 0.155223519 0.0504352562 -0.473186851
v 1.57476121e-09 0.20704554 -0.436521858
v 0.0554349497 0.17718865 -0.43900159
v 0.105196044 0.144789994 -0.440713227
v 0.155660808 0.110480964 -0.451392055
v 0.202251211 0.0657155141 -0.448379844
v 2.46676065e-11 0.252449036 -0.408471018
v 0.0565507077 0.227866456 -0.420063883
v 0.108157977 0.198728114 -0.426321
v 0.155957118 0.164672911 -0.427358001
v 0.200773507 0.125145048 -0.423295766
v 0.241356164 0.0784214959 -0.410619646
v 4.35907799e-09 0.293552935 -0.374933749
v 0.0560734645 0.271455497 -0.388298839
v 0.111445338 0.253673613 -0.410452336
v 0.161287859 0.221993804 -0.414179981
v 0.209001124 0.186318234 -0.41477865
v 0.243488997 0.138708189 -0.392559439
v 0.279519707 0.0908216089 -0.375382066
v 2.07736872e-09 0.335769236 -0.342868358
v 0.0549853481 0.310824931 -0.351881593
v 0.109371901 0.295739353 -0.372556806
v 0.166600868 0.280119568 -0.396431953
v 0.216571361 0.246881247 -0.399461925
v 0.254392415 0.200856537 -0.382963985
v 0.282610804 0.150452927 -0.356910527
v 0.311791211 0.10130728 -0.334795296
v -1.99388306e-09 0.37202242 -0.304052383
v 0.0551654547 0.357974052 -0.322185248
v 0.107668176 0.337211609 -0.334289879
v 0.162243217 0.321054131 -0.352035314
v 0.215196311 0.296192527 -0.362558067
v 0.25803718 0.256324321 -0.355932355
v 0.289321363 0.207954302 -0.336476654
v 0.312944889 0.157839105 -0.311788648
v 0.334983647 0.108842961 -0.287973255
v -9.44314557e-11 0.387819052 -0.251205057
v 0.052780766 0.388754845 -0.275598437
v 0.105210267 0.375684619 -0.291185081
v 0.157853767 0.359324694 -0.304906875
v 0.209883988 0.337284118 -0.314845413
v 0.268386096 0.318637997 -0.330115825
v 0.297867149 0.265538841 -0.309993535
v 0.324175388 0.215748578 -0.290640324
v 0.338064313 0.162953243 -0.263663411
v 0.356109351 0.115707159 -0.242641404
v 0 0.403419912 -0.201709718
v 0.0483072288 0.399888784 -0.217492729
v 0.0964505002 0.388439268 -0.229257017
v 0.146128744 0.37707001 -0.241619051
v 0.203111559 0.373238415 -0.260403484
v 0.255842954 0.352137834 -0.269008964
v 0.295504898 0.311985344 -0.263340741
v 0.32737413 0.26679495 -0.252322733
v 0.338198185 0.210883409 -0.228299066
v 0.354562879 0.164573759 -0.211089075
v 0.371980608 0.120864034 -0.195561588
v 0.0309828389 -0.0426442102 -0.473035991
v 0.087529093 -0.028439898 -0.482800722
v 0.0623932444 -0.0858769342 -0.471293122
v 0.145777106 -0.0135006616 -0.487504214
v 0.123348996 -0.0732519776 -0.477665603
v 0.0930432901 -0.128063127 -0.45885694
v 0.200392485 0.00226322399 -0.473972291
v 0.18506436 -0.0601310022 -0.479321301
v 0.156489998 -0.116390072 -0.461220294
v 0.123291925 -0.169696778 -0.442248613
v 0.24165602 0.0171950944 -0.433481336
v 0.230117142 -0.0428757779 -0.441094726
v 0.212788194 -0.101249188 -0.444061726
v 0.182477266 -0.153475612 -0.426620692
v 0.149239689 -0.205410808 -0.410821617
v 0.284257948 0.0315613225 -0.400657862
v 0.285834342 -0.0285973679 -0.42555505
v 0.264683366 -0.0860007554 -0.420080036
v 0.23608385 -0.137853697 -0.404981971
v 0.204979569 -0.186705813 -0.388408601
v 0.173302948 -0.238531053 -0.376576006
v 0.316399634 0.0442996621 -0.356155008
v 0.317825407 -0.0127362348 -0.375822186
v 0.311958551 -0.0705467239 -0.389037102
v 0.285881907 -0.12286289 -0.378495425
v 0.257106811 -0.17148383 -0.365154773
v 0.228587389 -0.220506832 -0.3540636
v 0.195053309 -0.268467844 -0.338874191
v 0.341838181 0.0555715263 -0.308083743
v 0.358299643 0.0018333866 -0.33836332
v 0.3484281 -0.0540030971 -0.345070243
v 0.325894624 -0.105889492 -0.339386761
v 0.301535308 -0.15489085 -0.331790537
v 0.278326064 -0.204378739 -0.326110214
v 0.248805285 -0.250865161 -0.31430009
v 0.217110485 -0.298826963 -0.301898777
v 0.365994781 0.0662780553 -0.261322647
v 0.386448205 0.0158917475 -0.288683414
v 0.387187988 -0.0387580357 -0.302318066
v 0.369378865 -0.0913657546 -0.301632196
v 0.346814841 -0.140873805 -0.296758115
v 0.317797184 -0.185576633 -0.285985231
v 0.290426552 -0.229802743 -0.276465386
v 0.263276041 -0.275177151 -0.267551392
v 0.234306306 -0.322494954 -0.25812003
v 0.383192092 0.0751852617 -0.210875377
v 0.396273702 0.0280838739 -0.227560103
v 0.413083971 -0.0229550898 -0.247188479
v 0.414474189 -0.0772285089 -0.258370906
v 0.394660145 -0.128232747 -0.256465465
v 0.362829208 -0.172616675 -0.246232286
v 0.331206322 -0.213560954 -0.235464454
v 0.301651716 -0.253582865 -0.225736231
v 0.273750395 -0.294708669 -0.217190579
v 0.244040102 -0.335892379 -0.207592711
v -0.0301274117 -0.0414668322 -0.459302664
v 1.06260263e-08 -0.0903032422 -0.473647714
v -0.0622746497 -0.0857137069 -0.470384151
v 0.0312188175 -0.138505548 -0.472714305
v -0.0321213342 -0.142438069 -0.486213118
v -0.0997186229 -0.13725093 -0.491955042
v 0.0624323376 -0.185080349 -0.46192953
v -6.19206464e-09 -0.198941275 -0.490082234
v -0.0677436143 -0.20059675 -0.500819147
v -0.13793759 -0.189854801 -0.494877815
v 0.0916673318 -0.226069763 -0.436492682
v 0.0324228965 -0.247919589 -0.471221894
v -0.0339932106 -0.259801745 -0.493856013
v -0.10330411 -0.254423052 -0.491407931
v -0.184000164 -0.253254533 -0.506509006
v 0.117839538 -0.260554194 -0.400598913
v 0.0612744316 -0.281340003 -0.426554263
v 7.11507686e-10 -0.309361994 -0.467001736
v -0.0670052469 -0.307430327 -0.466157287
v -0.142715156 -0.315013349 -0.484509021
v -0.217314824 -0.299108177 -0.47206986
v 0.142682374 -0.292883635 -0.363179803
v 0.0891922116 -0.317128956 -0.389229327
v 0.0307119358 -0.333673239 -0.407575071
v -0.031022476 -0.337027997 -0.411671132
v -0.0959901214 -0.341146171 -0.418707848
v -0.167181373 -0.342786819 -0.425127238
v -0.236904204 -0.326070637 -0.411337376
v 0.165336609 -0.321171939 -0.321324468
v 0.113636255 -0.343726873 -0.341869652
v 0.0590267219 -0.364791334 -0.361621827
v -5.59078235e-11 -0.362362891 -0.358851343
v -0.0596163683 -0.3684223 -0.365214407
v -0.122317955 -0.369875222 -0.367841512
v -0.185745776 -0.360603303 -0.360766828
v -0.260066867 -0.357951313 -0.361247629
v 0.184674516 -0.343439102 -0.273931533
v 0.131813958 -0.355309367 -0.282880038
v 0.0815234408 -0.374422193 -0.297731131
v 0.0271938741 -0.378749877 -0.301012009
v -0.0272970423 -0.380184948 -0.302147418
v -0.0824868083 -0.378840417 -0.301229835
v -0.14391306 -0.387856513 -0.308705032
v -0.211530909 -0.39323622 -0.313574791
v -0.288100362 -0.396536171 -0.316681176
v 0.197712794 -0.355000645 -0.219402194
v 0.148052529 -0.365484536 -0.225881636
v 0.0978232324 -0.369974732 -0.228656709
v 0.0498942472 -0.382035434 -0.236110657
v -1.67772657e-10 -0.387114763 -0.239249855
v -0.0514060371 -0.393531561 -0.24321565
v -0.108162656 -0.408752531 -0.252622694
v -0.171602592 -0.423001945 -0.26142934
v -0.253217041 -0.45324409 -0.280120015
v -0.336243808 -0.462799877 -0.286025852
v -0.047593534 0.0154641038 -0.4478558
v -0.0809576213 -0.0263047032 -0.446249783
v -0.0947843939 0.0307973847 -0.442065269
v -0.117859967 -0.0699635446 -0.456257999
v -0.130663946 -0.0121586462 -0.436742276
v -0.144878924 0.0470740981 -0.441487134
v -0.15884994 -0.118161701 -0.46821776
v -0.170763314 -0.0554843172 -0.44214946
v -0.1826078 0.00198505097 -0.431794614
v -0.193595558 0.0629031137 -0.429156452
v -0.200285688 -0.168585882 -0.468467921
v -0.21320799 -0.101449683 -0.444940209
v -0.232592508 -0.043333292 -0.445848584
v -0.236248329 0.0167871285 -0.423764408
v -0.239622027 0.0778580382 -0.407669336
v -0.244334161 -0.222830623 -0.463278085
v -0.268297344 -0.15674451 -0.460347235
v -0.28418076 -0.0923358575 -0.451052666
v -0.284629941 -0.0284790304 -0.423760831
v -0.283423901 0.0314655639 -0.399481297
v -0.28074652 0.0912202224 -0.377027184
v -0.277021855 -0.26752162 -0.429280013
v -0.304377258 -0.203133166 -0.432338446
v -0.333782494 -0.143480927 -0.44189781
v -0.33662349 -0.0761103034 -0.419777691
v -0.329468697 -0.0131827407 -0.389583021
v -0.330477446 0.0463152416 -0.372002035
v -0.33107385 0.107572593 -0.355429679
v -0.302800953 -0.305554152 -0.382571936
v -0.333334118 -0.244885325 -0.390505582
v -0.353260219 -0.18150121 -0.388599455
v -0.394357026 -0.128134251 -0.410523117
v -0.398084581 -0.0616690293 -0.394140601
v -0.393605381 0.00205955119 -0.371645004
v -0.395539314 0.0644285381 -0.356433153
v -0.38980037 0.126654029 -0.334780276
v -0.337415069 -0.352864176 -0.342795998
v -0.365782142 -0.289511979 -0.34797135
v -0.381557763 -0.222836196 -0.343122929
v -0.405492127 -0.164714023 -0.34673667
v -0.427912891 -0.105838843 -0.349213034
v -0.43514508 -0.043544244 -0.339607209
v -0.443891525 0.0182914976 -0.331443459
v -0.433471024 0.0785877109 -0.309382886
v -0.419405997 0.136273488 -0.285227567
v -0.391589165 -0.423149407 -0.310984373
v -0.417656809 -0.351844966 -0.312688619
v -0.427978188 -0.276236445 -0.304315418
v -0.430643141 -0.204950079 -0.292267412
v -0.443754792 -0.14418453 -0.288369089
v -0.449003607 -0.0836333558 -0.279890001
v -0.447589546 -0.0248059481 -0.267823815
v -0.449107617 0.0320252217 -0.257862329
v -0.445643097 0.0878513306 -0.245164126
v -0.45329991 0.147286326 -0.238313645
v -0.0504195765 0.0693966299 -0.449714661
v -0.101830259 0.0894869566 -0.451243997
v -0.0541279502 0.12564519 -0.455410868
v -0.153327733 0.108841009 -0.444629669
v -0.109159052 0.150244623 -0.457380325
v -0.0564308949 0.180425227 -0.447031558
v -0.203128159 0.126598492 -0.428253829
v -0.160893157 0.169869244 -0.440892577
v -0.11102476 0.204014331 -0.437677294
v -0.0582092628 0.234677494 -0.4326244
v -0.245524392 0.139857441 -0.39583537
v -0.212475926 0.189404562 -0.421669006
v -0.165731505 0.228109986 -0.425601661
v -0.113025092 0.257287532 -0.41629979
v -0.0573126897 0.277573675 -0.397047639
v -0.290180385 0.154452741 -0.366450608
v -0.25429669 0.200781196 -0.38282004
v -0.215987906 0.246216878 -0.398386925
v -0.162177831 0.272673666 -0.385902673
v -0.111196488 0.300699472 -0.378798455
v -0.0560042784 0.316692084 -0.358517289
v -0.344861656 0.173845857 -0.343507469
v -0.310177535 0.222904027 -0.360665828
v -0.272172451 0.270349503 -0.375379533
v -0.215228155 0.296236336 -0.362611622
v -0.162140727 0.320851028 -0.351813138
v -0.106438622 0.333343267 -0.330463618
v -0.0537005775 0.348327279 -0.313517392
v -0.395334542 0.190467954 -0.308183044
v -0.365420878 0.243160173 -0.327472866
v -0.33115679 0.295198202 -0.344489753
v -0.269225299 0.319634169 -0.331143618
v -0.214923725 0.345384479 -0.322373658
v -0.156285971 0.355753034 -0.301888943
v -0.101761065 0.363337517 -0.281650454
v -0.0516179129 0.380110174 -0.269486666
v -0.434600234 0.201108098 -0.258431435
v -0.409752756 0.255134672 -0.276418328
v -0.37781021 0.307739973 -0.291117221
v -0.323587447 0.341586828 -0.288343042
v -0.266911149 0.367371917 -0.280646741
v -0.204849765 0.376438707 -0.262635052
v -0.148541003 0.38333115 -0.245625913
v -0.0979343429 0.394510686 -0.232831761
v -0.0482495837 0.399385571 -0.217220172
v -0.0300861876 0.428739816 -0.168071836
v -0.08192949 0.4158777 -0.178176001
v -0.062264353 0.458979666 -0.133674651
v -0.136705115 0.41446048 -0.193036377
v -0.118779399 0.442831755 -0.142578214
v -0.0945875645 0.475484759 -0.0921869352
v -0.199237794 0.4204804 -0.212750018
v -0.182503253 0.449283212 -0.158343181
v -0.156797037 0.4654966 -0.10236235
v -0.125620559 0.48036781 -0.0468736365
v -0.26691556 0.419772059 -0.231240839
v -0.260529339 0.468454689 -0.180005968
v -0.225205585 0.468356401 -0.114347599
v -0.194094524 0.479042768 -0.0569096878
v -0.155848324 0.479651898 1.18757215e-09
v -0.328894764 0.39827472 -0.240153477
v -0.318546534 0.438441873 -0.183654234
v -0.295308173 0.462155074 -0.123800397
v -0.265155494 0.476191819 -0.0649099275
v -0.225252211 0.473718584 -0.0073103644
v -0.181066349 0.463339001 0.0469629318
v -0.372166693 0.351321191 -0.234115437
v -0.38144207 0.410181493 -0.188123122
v -0.379609227 0.46175307 -0.134941727
v -0.33849892 0.465903968 -0.0702654496
v -0.290231198 0.455321163 -0.0111398743
v -0.24542056 0.445986629 0.0418092757
v -0.202775657 0.439873606 0.0921027809
v -0.418368042 0.306690514 -0.2295876
v -0.44002825 0.370497346 -0.187883303
v -0.44557333 0.425362289 -0.13553606
v -0.418184966 0.450093925 -0.0731322542
v -0.366695583 0.445033252 -0.0118641593
v -0.308590174 0.42473802 0.041049663
v -0.266171217 0.420814395 0.0897335783
v -0.224189878 0.416772097 0.136606604
v -0.463254392 0.258119345 -0.222997546
v -0.494766265 0.321194321 -0.183423311
v -0.498907745 0.370418549 -0.129410118
v -0.490845203 0.412392825 -0.0704673305
v -0.438610673 0.415041834 -0.00832071155
v -0.374147713 0.398678273 0.0449580774
v -0.324095964 0.390556753 0.0914764181
v -0.286667377 0.394563854 0.137779281
v -0.244829521 0.391817659 0.180844918
v -0.476963609 0.19253394 -0.201589257
v -0.495978713 0.238798112 -0.159113094
v -0.52165693 0.292037964 -0.113842763
v -0.527613282 0.338083029 -0.059233766
v -0.5037871 0.366022855 2.86460988e-08
v -0.442300558 0.362632632 0.0540392362
v -0.385352999 0.356253803 0.0998496041
v -0.341945767 0.357588649 0.14287962
v -0.303457081 0.361688435 0.184851214
v -0.264784127 0.364444077 0.225238621
v -0.468130559 0.116779715 -0.188953057
v -0.455723643 0.0548453666 -0.192973718
v -0.466298401 0.0845460594 -0.136798024
v -0.455041051 -0.00199951534 -0.201305121
v -0.45562914 0.0237560365 -0.141882852
v -0.466363311 0.0551768094 -0.089277707
v -0.462059975 -0.0596266687 -0.213024095
v -0.45939973 -0.0330191702 -0.150376946
v -0.46200496 -0.00501939794 -0.0963036492
v -0.466733634 0.0272674821 -0.0441195853
v -0.471974373 -0.12162891 -0.226544604
v -0.476565152 -0.0933570936 -0.163031951
v -0.47767204 -0.0644566789 -0.106057599
v -0.474745303 -0.033742737 -0.0524427891
v -0.470005155 -5.76954129e-09 -3.7343309e-11
v -0.477023661 -0.18838346 -0.238449425
v -0.497190297 -0.161546871 -0.177138656
v -0.502575457 -0.130713299 -0.117214464
v -0.496667802 -0.0975676551 -0.0603000708
v -0.487094551 -0.0635863692 -0.00688590389
v -0.468513519 -0.0273721591 0.0442889519
v -0.478533745 -0.261475235 -0.249514654
v -0.502274871 -0.233366787 -0.186004981
v -0.520908892 -0.204378828 -0.126312941
v -0.515858591 -0.167612672 -0.0661924779
v -0.494719982 -0.128090769 -0.0105689634
v -0.475750357 -0.0909900442 0.0397475325
v -0.460374177 -0.0544626527 0.088122189
v -0.479247093 -0.345175743 -0.261502117
v -0.502576053 -0.312883824 -0.193372667
v -0.527151883 -0.284173429 -0.131765336
v -0.519744754 -0.241171792 -0.068222411
v -0.504602909 -0.198624313 -0.0111859124
v -0.478077948 -0.155337065 0.0392768905
v -0.45943296 -0.117247403 0.085413225
v -0.443918228 -0.0804480612 0.130167335
v -0.455624759 -0.423171282 -0.261534005
v -0.46932745 -0.38020286 -0.187813997
v -0.480862737 -0.341769189 -0.122878321
v -0.493712723 -0.307972103 -0.0640064031
v -0.502411962 -0.273661494 -0.00791631732
v -0.492864788 -0.231732309 0.0447808467
v -0.460698158 -0.183202386 0.0893447325
v -0.436842054 -0.141938761 0.12971504
v -0.419157416 -0.104406118 0.168932229
v -0.402689248 -0.480704457 -0.246269748
v -0.420265466 -0.439764559 -0.175962761
v -0.423126936 -0.391232789 -0.109712519
v -0.439726949 -0.360521257 -0.0537230223
v -0.462746233 -0.336204976 -2.68865263e-09
v -0.475911081 -0.304974437 0.0534017459
v -0.468443841 -0.262298077 0.10216409
v -0.432386786 -0.208297729 0.138559103
v -0.41032213 -0.165851727 0.173136935
v -0.398214012 -0.129387781 0.209353298
v -0.313281417 -0.500603199 -0.231788695
v -0.221700504 -0.478190243 -0.221638292
v -0.272195935 -0.505644977 -0.166043788
v -0.146491781 -0.457594454 -0.212595016
v -0.191242248 -0.498196661 -0.165941089
v -0.242135838 -0.525057077 -0.110080153
v -0.0812284127 -0.432182223 -0.201012716
v -0.118800983 -0.480273187 -0.161553323
v -0.154553324 -0.49348101 -0.107747912
v -0.201039314 -0.514393926 -0.0521706976
v -0.0254323352 -0.410316467 -0.190899506
v -0.054047063 -0.445734501 -0.150698498
v -0.0868680775 -0.477275252 -0.106742799
v -0.123965487 -0.499310106 -0.0566476025
v -0.162591875 -0.500406384 -4.64078509e-09
v 0.0246933438 -0.398444593 -0.185341895
v 0 -0.421412349 -0.142680854
v -0.026751006 -0.447904944 -0.101266004
v -0.057612177 -0.477248281 -0.0572826415
v -0.0921937451 -0.494307995 -0.00703374203
v -0.127241403 -0.486575067 0.0474830568
v 0.0726660863 -0.38680768 -0.179796696
v 0.0493522547 -0.407221586 -0.137632936
v 0.0253266729 -0.424220383 -0.0959054753
v 5.53409679e-11 -0.452177644 -0.055216901
v -0.0288632568 -0.474409878 -0.00986333005
v -0.0608800016 -0.483738273 0.0400132462
v -0.096203357 -0.483645082 0.0937806442
v 0.122242242 -0.382126331 -0.177397028
v 0.0985574126 -0.398839206 -0.134101972
v 0.0754734427 -0.415076435 -0.0928329751
v 0.0530700944 -0.439926267 -0.0528245009
v 0.0282892417 -0.465067238 -0.009678551
v 0 -0.483932137 0.0377880335
v -0.0316709578 -0.491679788 0.0887831971
v -0.0632940978 -0.466673076 0.135936752
v 0.174379855 -0.376474172 -0.174397901
v 0.151079968 -0.394072354 -0.131249234
v 0.127518237 -0.407710165 -0.0890642405
v 0.10740833 -0.433145523 -0.0492035411
v 0.0865457579 -0.464314133 -0.00664490927
v 0.0614321232 -0.488075495 0.0403784998
v 0.0318140015 -0.493872106 0.0891825184
v 3.39428208e-11 -0.478256315 0.135094076
v -0.0314214975 -0.44873637 0.176015243
v 0.224456817 -0.359440804 -0.165682986
v 0.206672996 -0.384343356 -0.125865296
v 0.186496496 -0.404642195 -0.0846674368
v 0.167231649 -0.427974701 -0.0433556549
v 0.15050298 -0.463200629 2.33189157e-09
v 0.124519601 -0.476151496 0.046459686
v 0.0981414095 -0.493432909 0.095692195
v 0.0658140481 -0.485500008 0.141472399
v 0.0328426547 -0.470018357 0.184469312
v 0 -0.439634174 0.219816819
v 0.278953552 -0.33229959 -0.169685051
v 0.313682318 -0.291044116 -0.179874972
v 0.320030093 -0.334593892 -0.133622169
v 0.347734898 -0.250279605 -0.189490616
v 0.363618731 -0.294319123 -0.145475671
v 0.366466165 -0.338764459 -0.094918184
v 0.385866135 -0.21077016 -0.200979918
v 0.405081481 -0.252056777 -0.155779496
v 0.419304729 -0.29786846 -0.107170187
v 0.413309336 -0.338848025 -0.0504770763
v 0.428274006 -0.169119641 -0.213958383
v 0.447981805 -0.20810701 -0.165839359
v 0.453421682 -0.244338766 -0.113330893
v 0.462036818 -0.288140833 -0.0599275753
v 0.465375543 -0.338115245 -2.0887958e-08
v 0.43388623 -0.111822546 -0.208168417
v 0.466076732 -0.151437476 -0.166017637
v 0.473868161 -0.185904503 -0.114895195
v 0.490594834 -0.227616891 -0.0644105375
v 0.493394256 -0.268731773 -0.00778538873
v 0.4760378 -0.305055588 0.0534160361
v 0.434052885 -0.0560320504 -0.200050235
v 0.458151996 -0.0897613168 -0.156714037
v 0.483178914 -0.125675857 -0.112686977
v 0.50116092 -0.162837103 -0.0643126145
v 0.510220766 -0.200839058 -0.0113051152
v 0.494690418 -0.232593507 0.044949472
v 0.481124163 -0.269384891 0.104947038
v 0.431700975 -0.00192349136 -0.190941229
v 0.450131446 -0.032364592 -0.147337347
v 0.474167407 -0.0639879033 -0.105279803
v 0.498389006 -0.0979041308 -0.0605080239
v 0.52364099 -0.13556172 -0.0111585977
v 0.536437273 -0.174299166 0.0441497304
v 0.508425951 -0.202227503 0.0986834466
v 0.491656154 -0.236724913 0.157715976
v 0.409765869 0.0492440052 -0.173477933
v 0.432802826 0.022522863 -0.134776831
v 0.449675918 -0.0049107098 -0.0937421173
v 0.473713905 -0.0336715057 -0.0523299538
v 0.504087806 -0.0657740533 -0.00710417656
v 0.529129028 -0.101119854 0.0442863442
v 0.530677199 -0.135363579 0.0987745374
v 0.510175049 -0.16576609 0.151621476
v 0.494394302 -0.199512929 0.209031239
v 0.389135092 0.0968206525 -0.156658724
v 0.40335694 0.07302095 -0.118150048
v 0.419197887 0.0495527238 -0.0801777542
v 0.440352082 0.0257159807 -0.041609183
v 0.471426129 3.55741929e-11 1.77870964e-11
v 0.500188231 -0.0292349644 0.0473030396
v 0.532376945 -0.0630484074 0.102014191
v 0.522755384 -0.0948838145 0.153524831
v 0.506314278 -0.126427218 0.204563007
v 0.479000777 -0.155637041 0.251825362
v 0.371233284 0.150201157 -0.156448096
v 0.355205655 0.198100984 -0.170950577
v 0.377085567 0.181773812 -0.12068481
v 0.340969801 0.250071287 -0.187005907
v 0.362867296 0.235840067 -0.134585738
v 0.38175711 0.213850334 -0.0831389725
v 0.321552098 0.303601384 -0.202153534
v 0.339552969 0.286069244 -0.144949764
v 0.361673415 0.268851727 -0.0939396992
v 0.380336225 0.243771121 -0.0426208675
v 0.279270351 0.338207752 -0.203749821
v 0.298731089 0.321329832 -0.147243693
v 0.325734019 0.311166018 -0.09912242
v 0.351924926 0.296028376 -0.050688982
v 0.37337026 0.27126953 -8.98467789e-09
v 0.229468733 0.360851943 -0.198622331
v 0.260516465 0.358570367 -0.150093198
v 0.286040217 0.348008126 -0.10166651
v 0.311548769 0.335495204 -0.0545707457
v 0.340557545 0.322525591 -0.00660329359
v 0.367137313 0.3009682 0.0448038988
v 0.182254001 0.384573251 -0.194499433
v 0.218671054 0.393094957 -0.150975853
v 0.250386834 0.391801447 -0.104942203
v 0.276280791 0.380268037 -0.0573893338
v 0.303080797 0.367905855 -0.00989059545
v 0.335017502 0.357088387 0.0401876234
v 0.349505126 0.323058397 0.0904895887
v 0.12994343 0.393878549 -0.183416709
v 0.167520776 0.41227445 -0.145281523
v 0.207566321 0.431571215 -0.105373614
v 0.233532667 0.419286191 -0.0571904853
v 0.264378071 0.414715052 -0.0101896413
v 0.297810614 0.409901202 0.0395933241
v 0.325877428 0.392700016 0.0919829682
v 0.337055802 0.352457911 0.140814036
v 0.080374971 0.407918274 -0.174760997
v 0.112542637 0.419404805 -0.135042191
v 0.148975626 0.442127705 -0.0972426161
v 0.180618882 0.44560656 -0.0529751405
v 0.210205793 0.441939026 -0.006862415
v 0.249870285 0.45409897 0.0425822325
v 0.281998038 0.445881993 0.0951219723
v 0.3001858 0.413170367 0.14431338
v 0.315894395 0.376605332 0.192549124
v 0.0299859885 0.427239329 -0.167475775
v 0.0598518737 0.440955639 -0.128375068
v 0.0899995863 0.45231384 -0.0876616761
v 0.123531677 0.472368032 -0.0460882373
v 0.155625209 0.478965223 2.03361394e-09
v 0.184939444 0.473239392 0.0479728021
v 0.214858606 0.466023564 0.0976215452
v 0.234384403 0.435645044 0.14285785
v 0.255241007 0.408363849 0.188593417
v 0.282712817 0.389120817 0.240489677
v 0 0.455340683 -0.12858364
v -0.0305187944 0.474021196 -0.085566774
v 0.0301684681 0.46865195 -0.0845887959
v -0.0615234338 0.488792807 -0.0404389054
v 0 0.479321241 -0.0374218747
v 0.0601315051 0.477858394 -0.0395180844
v -0.089729093 0.481219351 0.00686406484
v -0.0286414381 0.470799506 0.00979192089
v 0.0286781918 0.471397758 0.00980375893
v 0.0908495486 0.487169564 0.00694120163
v -0.11416056 0.460128397 0.0522393435
v -0.0548820421 0.454814702 0.0546029545
v 6.0896217e-09 0.455501646 0.0556212291
v 0.0558248237 0.462561697 0.0555283315
v 0.119568385 0.481738746 0.0546706803
v -0.136871681 0.437384695 0.0955283269
v -0.0794423819 0.436741292 0.0976779908
v -0.0260994993 0.437071085 0.0988139734
v 0.026265163 0.439826131 0.0994375125
v 0.0822372735 0.451997489 0.10108982
v 0.14507398 0.46340704 0.101196833
v -0.160698637 0.419009626 0.139557809
v -0.103984423 0.42067048 0.141461268
v -0.0510731488 0.421338528 0.142422125
v -1.30972644e-09 0.421135068 0.142586634
v 0.0507590249 0.41876176 0.141547948
v 0.105736531 0.427718699 0.143837243
v 0.166062042 0.432914704 0.144190654
v -0.184529722 0.398291379 0.184530556
v -0.129792631 0.405624211 0.18835634
v -0.0768508986 0.408984333 0.190165922
v -0.0250650384 0.404416054 0.188137308
v 0.0248827189 0.401487112 0.186766177
v 0.0768711567 0.409091711 0.190216139
v 0.131201416 0.410008579 0.190401196
v 0.190119892 0.410307497 0.190111235
v -0.210341185 0.377353102 0.233216792
v -0.156518832 0.386162192 0.23866111
v -0.102564402 0.387756407 0.239646405
v -0.0504040644 0.385912269 0.23850669
v -1.23631716e-10 0.383089244 0.236761943
v 0.0509014577 0.389694631 0.240844294
v 0.102948427 0.389196664 0.240536526
v 0.158422217 0.390810907 0.241534173
v 0.21924147 0.393106759 0.242953077
v -0.491149336 0.159584254 -0.145938009
v -0.492263764 0.125595704 -0.0915703923
v -0.516368508 0.205393523 -0.100237533
v -0.487296492 0.0931811854 -0.0407293066
v -0.51686126 0.167938545 -0.042515181
v -0.530062675 0.249279648 -0.0482167117
v -0.476383954 0.0622075051 0.00674832752
v -0.504558086 0.130632177 0.0107695358
v -0.509810567 0.200677365 0.0112964194
v -0.515642881 0.280894428 0.00810844731
v -0.473338664 0.0336455926 0.0522889011
v -0.483201027 0.0949350372 0.0586730242
v -0.496739119 0.161400378 0.0637470409
v -0.491982192 0.228262007 0.0645919517
v -0.483080029 0.301315278 0.0626372546
v -0.458251566 0.00498631317 0.0955238491
v -0.47535336 0.0641465411 0.105543025
v -0.480320871 0.124933586 0.112019852
v -0.474995047 0.186347052 0.115168706
v -0.461187601 0.248534516 0.115272582
v -0.432372421 0.307187825 0.110504754
v -0.44013229 -0.022918826 0.137058571
v -0.449504614 0.0323203318 0.147131771
v -0.454332083 0.0890153497 0.155403346
v -0.450897217 0.146505341 0.16059196
v -0.448647559 0.20841676 0.166086644
v -0.423847824 0.263765126 0.163015649
v -0.387111098 0.313405633 0.154884815
v -0.421748191 -0.0507044308 0.178560957
v -0.432410657 0.00192580523 0.191256344
v -0.437653959 0.056494236 0.201718315
v -0.435538024 0.112247825 0.208965346
v -0.428569198 0.169236287 0.214106664
v -0.411577821 0.224838838 0.214446411
v -0.386470586 0.278230369 0.210700929
v -0.345788002 0.320929706 0.198345274
v -0.401719213 -0.0789428651 0.221047699
v -0.415562987 -0.0295228306 0.238623232
v -0.426699817 0.0236854348 0.255331159
v -0.416548967 0.0776133537 0.259663939
v -0.414496779 0.134678036 0.269356072
v -0.396790445 0.188809261 0.269286692
v -0.370160878 0.238790363 0.263179749
v -0.339234531 0.285417408 0.253906697
v -0.301136553 0.324558765 0.238988623
v -0.352681339 -0.48542428 -0.169686973
v -0.308971822 -0.488604903 -0.104305416
v -0.370643049 -0.446557224 -0.104711957
v -0.278395712 -0.506103992 -0.0475373417
v -0.332847953 -0.458126009 -0.0443269648
v -0.388429463 -0.413857788 -0.046699211
v -0.239486188 -0.503782213 0.00773413014
v -0.307801485 -0.482917845 0.0117856842
v -0.358918905 -0.435604751 0.0116228992
v -0.410972416 -0.388964266 0.00783662964
v -0.19628033 -0.484466255 0.057547871
v -0.267266363 -0.479990304 0.0654251799
v -0.32808429 -0.451569349 0.0681101084
v -0.378766507 -0.407732069 0.0662709028
v -0.423551977 -0.356025696 0.0608866736
v -0.161463216 -0.479438275 0.105416745
v -0.223316029 -0.464415967 0.113386296
v -0.292362541 -0.457541764 0.122563779
v -0.343732625 -0.41814062 0.122183196
v -0.379539341 -0.362437695 0.115471385
v -0.432666332 -0.32139346 0.112288959
v -0.120773844 -0.450323433 0.144988164
v -0.18069832 -0.444824785 0.156769663
v -0.242280841 -0.435600907 0.167350024
v -0.300867528 -0.414108843 0.173429787
v -0.339748532 -0.365392506 0.167516336
v -0.376617163 -0.317213804 0.160787463
v -0.419854403 -0.272717476 0.155686095
v -0.0841703117 -0.427351147 0.183098689
v -0.136433274 -0.413633019 0.192649618
v -0.192471594 -0.406175286 0.205479115
v -0.245058656 -0.385381669 0.212202102
v -0.291102082 -0.352529258 0.212429389
v -0.329290867 -0.310897529 0.20704037
v -0.364101857 -0.266993165 0.199732348
v -0.390134603 -0.21750313 0.187775806
v -0.0500221662 -0.414859205 0.225600928
v -0.0963985696 -0.388226807 0.229131922
v -0.142627612 -0.367982656 0.235803515
v -0.191445619 -0.351759881 0.245426327
v -0.239396155 -0.329500735 0.251715809
v -0.282232285 -0.297994822 0.251523942
v -0.322579473 -0.262902528 0.248634756
v -0.351199389 -0.218923718 0.237042159
v -0.380085766 -0.176224083 0.226185948
v 0.265062064 -0.364826649 -0.127336413
v 0.311209202 -0.37505278 -0.0878120884
v 0.24889791 -0.393455774 -0.0838527381
v 0.363406092 -0.38726145 -0.0436485484
v 0.302004188 -0.415673196 -0.0401598886
v 0.230366796 -0.418541938 -0.0391943119
v 0.408719301 -0.386838347 0.0077971518
v 0.353603631 -0.429160476 0.0114579909
v 0.28655076 -0.449540496 0.0110045988
v 0.215292513 -0.452682704 0.00701385224
v 0.451254427 -0.379230171 0.0648307279
v 0.390281975 -0.420107424 0.068275325
v 0.32428813 -0.446344495 0.0673244968
v 0.26202485 -0.470558196 0.0641456991
v 0.191794932 -0.473336935 0.0562382564
v 0.468848199 -0.348171562 0.121640757
v 0.426129907 -0.406834364 0.129628122
v 0.368128568 -0.447796971 0.130858943
v 0.310034961 -0.485219419 0.129982769
v 0.236677185 -0.4922795 0.120183796
v 0.163851187 -0.4865731 0.106979869
v 0.479264855 -0.311163068 0.177683696
v 0.44906944 -0.378094554 0.191746637
v 0.398084611 -0.428059548 0.196348652
v 0.344835162 -0.474625051 0.198857933
v 0.278521895 -0.500847578 0.192484379
v 0.204965472 -0.504768014 0.177925691
v 0.13130182 -0.489869356 0.15770936
v 0.474883437 -0.264578998 0.228599221
v 0.446921319 -0.327578187 0.245296568
v 0.396473229 -0.374237627 0.249464422
v 0.348986864 -0.422594786 0.254892647
v 0.304255486 -0.47852394 0.263766199
v 0.239545405 -0.50569886 0.256064057
v 0.165115908 -0.500940263 0.233455688
v 0.0967877135 -0.491954684 0.210816875
v 0.458159089 -0.211861908 0.272366583
v 0.431261718 -0.268436402 0.290882766
v 0.392535001 -0.319693923 0.302443266
v 0.349906892 -0.36932987 0.311775655
v 0.301367521 -0.414797038 0.316876262
v 0.243884087 -0.448306084 0.31274873
v 0.181105405 -0.467853725 0.29971686
v 0.11503467 -0.464480013 0.27402845
v 0.0547968261 -0.456539303 0.248175442
v 0.385407656 0.125226721 -0.114350267
v 0.388555169 0.154444963 -0.0752287656
v 0.398488611 0.101750299 -0.073983565
v 0.397210658 0.186609417 -0.0359455012
v 0.403665185 0.131158844 -0.0330636539
v 0.416710496 0.0797858983 -0.0347273573
v 0.401367724 0.218423396 0.00644923095
v 0.411296397 0.161840141 0.00920609478
v 0.424231797 0.109882042 0.00913185813
v 0.443071127 0.0579188652 0.00632043649
v 0.395257831 0.246332735 0.0513286218
v 0.417009145 0.193399027 0.0547879003
v 0.436868787 0.141947314 0.0560894944
v 0.454259783 0.0892773047 0.0551763549
v 0.473754644 0.0336743146 0.0523344092
v 0.38022998 0.270001918 0.0971992686
v 0.414091289 0.223089486 0.103497297
v 0.452991545 0.177705616 0.10982801
v 0.477374256 0.124168344 0.111332074
v 0.499528021 0.0673801601 0.11090818
v 0.51836282 0.00551619241 0.108012795
v 0.367103487 0.297150344 0.146871388
v 0.402012706 0.250142157 0.154596195
v 0.450489968 0.209273934 0.16677095
v 0.483446091 0.157081127 0.172226012
v 0.52104044 0.102042377 0.178292304
v 0.523214221 0.0375261158 0.171305403
v 0.531343341 -0.0278464574 0.165453315
v 0.349094391 0.324007452 0.200247422
v 0.38456589 0.276855975 0.209657967
v 0.425513119 0.232463852 0.221745029
v 0.461843222 0.182384819 0.23082301
v 0.487061083 0.125513211 0.233823419
v 0.503380835 0.064930059 0.232165366
v 0.525203466 0.00222804514 0.232459903
v 0.518740594 -0.0625258982 0.219706193
v 0.32657209 0.352282733 0.259234041
v 0.357681096 0.301042557 0.267733425
v 0.401992977 0.259406805 0.285827547
v 0.439202905 0.209031329 0.29807815
v 0.455511689 0.148004591 0.296009183
v 0.471871793 0.0878751501 0.29414171
v 0.485700637 0.0268502049 0.29061535
v 0.494480073 -0.0354099572 0.283885181
v 0.492969662 -0.0974499136 0.271148771
v -4.18197637e-08 5.47060841e-10 0.662785888
v 0.0405608192 0.0558272414 0.626807034
v -0.0414315388 0.0570256114 0.640785217
v 0.0785069391 0.108055539 0.594801426
v -7.66244739e-08 0.117483646 0.617427647
v -0.0822659358 0.113229372 0.623613298
v 0.114993192 0.158274561 0.567690372
v 0.0387721546 0.171417803 0.585689127
v -0.0401719771 0.177517056 0.606625378
v -0.122787535 0.169002622 0.606337011
v 0.15307942 0.210695744 0.549290061
v 0.0743990391 0.220039904 0.549550533
v -2.34077451e-08 0.229095742 0.564624727
v -0.0760319829 0.224810451 0.561507225
v -0.152477697 0.209867567 0.547127724
v 0.179622442 0.247229099 0.494458199
v 0.104284391 0.2568115 0.496033967
v 0.0346363708 0.264668524 0.503126562
v -0.0351796076 0.26877892 0.510956466
v -0.105985343 0.26095593 0.504060924
v -0.179619551 0.247225136 0.494450241
v 0.199705243 0.274870694 0.433861822
v 0.127678633 0.282094538 0.433788061
v 0.0636232942 0.292033523 0.442786157
v 5.1240312e-10 0.300067842 0.452960074
v -0.0664225817 0.304777652 0.462130725
v -0.136132762 0.300602794 0.462305397
v -0.199498162 0.274585664 0.433412522
v 0.225568011 0.31046769 0.391709208
v 0.151567608 0.310982376 0.385646731
v 0.0897292346 0.319026291 0.391558081
v 0.0299958326 0.325937331 0.398129672
v -0.030466225 0.331018895 0.404334158
v -0.0943781957 0.335451186 0.411717892
v -0.160397708 0.328968823 0.407974243
v -0.221546486 0.304932564 0.384746104
v 0.246308908 0.339015126 0.342239559
v 0.181188494 0.351798445 0.351959556
v 0.115439862 0.349159151 0.347265273
v 0.0564477406 0.348910391 0.34590891
v 2.85167879e-11 0.351641744 0.348256707
v -0.057474196 0.355231136 0.352162778
v -0.118417367 0.358127058 0.356172651
v -0.178445771 0.346499413 0.346659005
v -0.236868143 0.326021045 0.329196125
v 0.263114989 0.362146735 0.289481699
v 0.198792487 0.369616628 0.294771343
v 0.139389217 0.375687152 0.299049079
v 0.081437178 0.374026597 0.297417849
v 0.0264507309 0.368411988 0.292833239
v -0.0263862386 0.36751461 0.292123318
v -0.0815293118 0.374449134 0.29775244
v -0.136103764 0.366849154 0.292036444
v -0.191579387 0.35624212 0.284123957
v -0.247729242 0.340970039 0.272732466
v 0.0666245073 -0.0216476563 0.636686563
v 0.131084353 -0.0425919555 0.614021838
v 0.110900588 0.036033757 0.612794399
v 0.193732947 -0.0629477501 0.591194272
v 0.182733372 0.0167823154 0.611632526
v 0.154070124 0.0916567817 0.597480357
v 0.250940174 -0.0815355405 0.556513429
v 0.252486855 -0.00307804113 0.597517788
v 0.229653001 0.0746187344 0.595217884
v 0.196407378 0.146356583 0.579580009
v 0.313133389 -0.101743415 0.532734454
v 0.317476898 -0.0229151435 0.569721878
v 0.308728397 0.057405211 0.592063189
v 0.276691794 0.13176851 0.577797294
v 0.237193778 0.199901998 0.555196524
v 0.363707244 -0.118175834 0.488274574
v 0.364910424 -0.0408215784 0.514435053
v 0.373156369 0.0371770933 0.555639923
v 0.347715169 0.112979457 0.551980376
v 0.320494235 0.187354073 0.550058007
v 0.268284231 0.244815201 0.508841515
v 0.396653712 -0.128880799 0.425606787
v 0.400515854 -0.0563429147 0.45084253
v 0.402055502 0.0159663148 0.475370646
v 0.415900767 0.0939926356 0.518583059
v 0.390073061 0.167710274 0.516405344
v 0.353273541 0.235871077 0.501833022
v 0.291684806 0.281754792 0.452050865
v 0.421242982 -0.136870369 0.361628532
v 0.432114273 -0.0704608932 0.389363199
v 0.43432188 -0.00232043117 0.410027325
v 0.429386735 0.0665014312 0.425073206
v 0.425784588 0.138345674 0.443178177
v 0.396538973 0.203766346 0.436132014
v 0.368298978 0.270632625 0.431437343
v 0.306672305 0.309475213 0.387466878
v 0.452482402 -0.147020683 0.307481498
v 0.464333177 -0.0842178836 0.331364572
v 0.471171141 -0.019431131 0.351750046
v 0.452250034 0.0452513322 0.352907211
v 0.439891338 0.10880059 0.358949959
v 0.427827954 0.17378892 0.36576134
v 0.408868283 0.238795534 0.367596656
v 0.375960618 0.297577083 0.357629865
v 0.317187846 0.331668973 0.322267145
v 1.6877312e-08 -0.0748170614 0.681640685
v -5.26892698e-08 -0.150215447 0.669820249
v 0.0719194263 -0.0989886373 0.643204868
v -7.89006138e-10 -0.214458644 0.622540772
v 0.0734623894 -0.171030432 0.620457292
v 0.134840965 -0.118258126 0.597746134
v -7.8192004e-09 -0.250095725 0.527452767
v 0.0728278905 -0.233711511 0.579235077
v 0.134679034 -0.185369954 0.56470871
v 0.193735093 -0.137243912 0.561749756
v -8.52282411e-11 -0.298855573 0.483558357
v 0.0690325052 -0.279124349 0.514590621
v 0.131528869 -0.241822958 0.518900812
v 0.192689031 -0.203341872 0.528076947
v 0.255282015 -0.158791453 0.538071215
v -1.09079812e-08 -0.345027357 0.440580845
v 0.0682399571 -0.331522852 0.474192888
v 0.135056868 -0.307688653 0.497850507
v 0.195035219 -0.268443137 0.500921905
v 0.256346524 -0.228370503 0.508661866
v 0.321138114 -0.182551011 0.51753366
v -1.6958106e-09 -0.361362338 0.3689152
v 0.0643105581 -0.364520818 0.412611216
v 0.128853485 -0.348699659 0.439200133
v 0.197880059 -0.332776248 0.470894158
v 0.256846011 -0.292743117 0.473668009
v 0.311463743 -0.245761052 0.468726933
v 0.364665747 -0.193811134 0.46032533
v -9.68375158e-10 -0.379821122 0.310385644
v 0.0600206181 -0.389947265 0.350913942
v 0.124310434 -0.389570117 0.386078924
v 0.189564779 -0.375198066 0.411264598
v 0.256062806 -0.352440417 0.431263983
v 0.315280825 -0.313122094 0.434687614
v 0.356721014 -0.256266445 0.4146474
v 0.38981846 -0.196392372 0.388185441
v -3.47386356e-11 -0.408015937 0.264128536
v 0.0565354228 -0.416666925 0.295332283
v 0.119446374 -0.426645726 0.330537856
v 0.186263368 -0.424045503 0.359593809
v 0.247320384 -0.397455513 0.370766878
v 0.307284474 -0.364812285 0.377758265
v 0.356953621 -0.318181932 0.371221662
v 0.388825893 -0.258715093 0.348373771
v 0.419938922 -0.202288777 0.327309549
v -0.0701373443 -0.0227890387 0.671541631
v -0.131415918 -0.042699635 0.615592241
v -0.0741820633 -0.10210298 0.663568139
v -0.188717067 -0.0613179579 0.575823724
v -0.136272907 -0.119506165 0.604101121
v -0.0734284669 -0.17095077 0.620167553
v -0.229718581 -0.0746402144 0.509382248
v -0.187326804 -0.132739455 0.54317534
v -0.134655282 -0.185337216 0.564608693
v -0.0696017966 -0.223227471 0.553224206
v -0.274581403 -0.0892170593 0.467145801
v -0.231058955 -0.143839315 0.48706609
v -0.18146646 -0.191527456 0.497304559
v -0.124114007 -0.228150263 0.48952806
v -0.0659983158 -0.266664118 0.491612196
v -0.301382244 -0.0979251936 0.404698968
v -0.267218232 -0.15210636 0.430751026
v -0.218201518 -0.19449003 0.433022529
v -0.165422767 -0.227685049 0.424808085
v -0.116824515 -0.26597932 0.430363357
v -0.0633409917 -0.307336092 0.439606726
v -0.328152806 -0.106623486 0.352303892
v -0.292190999 -0.155515149 0.36898458
v -0.246599287 -0.194724783 0.371252924
v -0.200736642 -0.228849798 0.370286405
v -0.155627042 -0.261645794 0.370308071
v -0.109498985 -0.296084791 0.372991562
v -0.0580335036 -0.328376651 0.371732444
v -0.359381974 -0.116770476 0.308806539
v -0.324000597 -0.163383707 0.322775781
v -0.282813311 -0.20328933 0.32892859
v -0.237196714 -0.235646188 0.327260315
v -0.193027213 -0.26567933 0.325286716
v -0.148244366 -0.293312162 0.321687788
v -0.103340536 -0.323596328 0.320822656
v -0.0544686578 -0.353385389 0.318062216
v -0.379074693 -0.12316905 0.258092552
v -0.353506535 -0.170372233 0.275667578
v -0.318688631 -0.2121021 0.285740614
v -0.278462589 -0.24825035 0.28988561
v -0.235158324 -0.279195011 0.289418668
v -0.189841717 -0.305070251 0.284906864
v -0.143865123 -0.327456743 0.277979523
v -0.0988495648 -0.352915168 0.273602217
v -0.0518488549 -0.381827027 0.270700455
v -0.11710275 0.0380489379 0.647291183
v -0.157065377 0.0934511945 0.609162092
v -0.178478003 0.0164044257 0.59733963
v -0.186669633 0.139046356 0.550706506
v -0.210272551 0.0683216155 0.544843376
v -0.222639441 -0.00261119148 0.526732564
v -0.213590264 0.179874688 0.499731779
v -0.237059221 0.112840645 0.494855374
v -0.252061218 0.0469316207 0.483237118
v -0.262654006 -0.0187792145 0.471212059
v -0.23880069 0.217751294 0.45275104
v -0.271196216 0.158444479 0.465329528
v -0.289903522 0.0941952989 0.460143566
v -0.299620658 0.0299519245 0.446092725
v -0.305056274 -0.0339493118 0.429998279
v -0.258440733 0.249485135 0.400424421
v -0.294535935 0.196544036 0.418351382
v -0.325585783 0.139952794 0.431048453
v -0.343648255 0.0776948556 0.428532839
v -0.343783528 0.0137316994 0.406501174
v -0.336217791 -0.047137104 0.378463775
v -0.283542156 0.286048084 0.358221233
v -0.31695348 0.232823029 0.371329516
v -0.350865841 0.18026939 0.385969728
v -0.369354427 0.120010436 0.384543985
v -0.383618146 0.0594357103 0.379844904
v -0.38563168 -0.0020084735 0.364128441
v -0.365188748 -0.0594227687 0.329107285
v -0.291706085 0.304967761 0.296405405
v -0.329525948 0.260783792 0.31356734
v -0.366384298 0.21396932 0.32952553
v -0.40117836 0.162961379 0.343062431
v -0.401025921 0.0991907865 0.327357322
v -0.401101708 0.0401466489 0.313136697
v -0.394156069 -0.0162137505 0.294421047
v -0.381134361 -0.0690399632 0.272105873
g 
f 3 1 2
f 5 2 4
f 6 3 5
f 8 4 7
f 9 5 8
f 10 6 9
f 12 7 11
f 13 8 12
f 14 9 13
f 15 10 14
f 17 11 16
f 18 12 17
f 19 13 18
f 20 14 19
f 21 15 20
f 23 16 22
f 24 17 23
f 25 18 24
f 26 19 25
f 27 20 26
f 28 21 27
f 30 22 29
f 31 23 30
f 32 24 31
f 33 25 32
f 34 26 33
f 35 27 34
f 36 28 35
f 38 29 37
f 39 30 38
f 40 31 39
f 41 32 40
f 42 33 41
f 43 34 42
f 44 35 43
f 45 36 44
f 47 37 46
f 48 38 47
f 49 39 48
f 50 40 49
f 51 41 50
f 52 42 51
f 53 43 52
f 54 44 53
f 55 45 54
f 57 46 56
f 58 47 57
f 59 48 58
f 60 49 59
f 61 50 60
f 62 51 61
f 63 52 62
f 64 53 63
f 65 54 64
f 66 55 65
f 3 2 5
f 5 4 8
f 6 5 9
f 8 7 12
f 9 8 13
f 10 9 14
f 12 11 17
f 13 12 18
f 14 13 19
f 15 14 20
f 17 16 23
f 18 17 24
f 19 18 25
f 20 19 26
f 21 20 27
f 23 22 30
f 24 23 31
f 25 24 32
f 26 25 33
f 27 26 34
f 28 27 35
f 30 29 38
f 31 30 39
f 32 31 40
f 33 32 41
f 34 33 42
f 35 34 43
f 36 35 44
f 38 37 47
f 39 38 48
f 40 39 49
f 41 40 50
f 42 41 51
f 43 42 52
f 44 43 53
f 45 44 54
f 47 46 57
f 48 47 58
f 49 48 59
f 50 49 60
f 51 50 61
f 52 51 62
f 53 52 63
f 54 53 64
f 55 54 65
f 67 1 3
f 68 3 6
f 69 67 68
f 70 6 10
f 71 68 70
f 72 69 71
f 73 10 15
f 74 70 73
f 75 71 74
f 76 72 75
f 77 15 21
f 78 73 77
f 79 74 78
f 80 75 79
f 81 76 80
f 82 21 28
f 83 77 82
f 84 78 83
f 85 79 84
f 86 80 85
f 87 81 86
f 88 28 36
f 89 82 88
f 90 83 89
f 91 84 90
f 92 85 91
f 93 86 92
f 94 87 93
f 95 36 45
f 96 88 95
f 97 89 96
f 98 90 97
f 99 91 98
f 100 92 99
f 101 93 100
f 102 94 101
f 103 45 55
f 104 95 103
f 105 96 104
f 106 97 105
f 107 98 106
f 108 99 107
f 109 100 108
f 110 101 109
f 111 102 110
f 112 55 66
f 113 103 112
f 114 104 113
f 115 105 114
f 116 106 115
f 117 107 116
f 118 108 117
f 119 109 118
f 120 110 119
f 121 111 120
f 67 3 68
f 68 6 70
f 69 68 71
f 70 10 73
f 71 70 74
f 72 71 75
f 73 15 77
f 74 73 78
f 75 74 79
f 76 75 80
f 77 21 82
f 78 77 83
f 79 78 84
f 80 79 85
f 81 80 86
f 82 28 88
f 83 82 89
f 84 83 90
f 85 84 91
f 86 85 92
f 87 86 93
f 88 36 95
f 89 88 96
f 90 89 97
f 91 90 98
f 92 91 99
f 93 92 100
f 94 93 101
f 95 45 103
f 96 95 104
f 97 96 105
f 98 97 106
f 99 98 107
f 100 99 108
f 101 100 109
f 102 101 110
f 103 55 112
f 104 103 113
f 105 104 114
f 106 105 115
f 107 106 116
f 108 107 117
f 109 108 118
f 110 109 119
f 111 110 120
f 122 1 67
f 123 67 69
f 124 122 123
f 125 69 72
f 126 123 125
f 127 124 126
f 128 72 76
f 129 125 128
f 130 126 129
f 131 127 130
f 132 76 81
f 133 128 132
f 134 129 133
f 135 130 134
f 136 131 135
f 137 81 87
f 138 132 137
f 139 133 138
f 140 134 139
f 141 135 140
f 142 136 141
f 143 87 94
f 144 137 143
f 145 138 144
f 146 139 145
f 147 140 146
f 148 141 147
f 149 142 148
f 150 94 102
f 151 143 150
f 152 144 151
f 153 145 152
f 154 146 153
f 155 147 154
f 156 148 155
f 157 149 156
f 158 102 111
f 159 150 158
f 160 151 159
f 161 152 160
f 162 153 161
f 163 154 162
f 164 155 163
f 165 156 164
f 166 157 165
f 167 111 121
f 168 158 167
f 169 159 168
f 170 160 169
f 171 161 170
f 172 162 171
f 173 163 172
f 174 164 173
f 175 165 174
f 176 166 175
f 122 67 123
f 123 69 125
f 124 123 126
f 125 72 128
f 126 125 129
f 127 126 130
f 128 76 132
f 129 128 133
f 130 129 134
f 131 130 135
f 132 81 137
f 133 132 138
f 134 133 139
f 135 134 140
f 136 135 141
f 137 87 143
f 138 137 144
f 139 138 145
f 140 139 146
f 141 140 147
f 142 141 148
f 143 94 150
f 144 143 151
f 145 144 152
f 146 145 153
f 147 146 154
f 148 147 155
f 149 148 156
f 150 102 158
f 151 150 159
f 152 151 160
f 153 152 161
f 154 153 162
f 155 154 163
f 156 155 164
f 157 156 165
f 158 111 167
f 159 158 168
f 160 159 169
f 161 160 170
f 162 161 171
f 163 162 172
f 164 163 173
f 165 164 174
f 166 165 175
f 177 1 122
f 178 122 124
f 179 177 178
f 180 124 127
f 181 178 180
f 182 179 181
f 183 127 131
f 184 180 183
f 185 181 184
f 186 182 185
f 187 131 136
f 188 183 187
f 189 184 188
f 190 185 189
f 191 186 190
f 192 136 142
f 193 187 192
f 194 188 193
f 195 189 194
f 196 190 195
f 197 191 196
f 198 142 149
f 199 192 198
f 200 193 199
f 201 194 200
f 202 195 201
f 203 196 202
f 204 197 203
f 205 149 157
f 206 198 205
f 207 199 206
f 208 200 207
f 209 201 208
f 210 202 209
f 211 203 210
f 212 204 211
f 213 157 166
f 214 205 213
f 215 206 214
f 216 207 215
f 217 208 216
f 218 209 217
f 219 210 218
f 220 211 219
f 221 212 220
f 222 166 176
f 223 213 222
f 224 214 223
f 225 215 224
f 226 216 225
f 227 217 226
f 228 218 227
f 229 219 228
f 230 220 229
f 231 221 230
f 177 122 178
f 178 124 180
f 179 178 181
f 180 127 183
f 181 180 184
f 182 181 185
f 183 131 187
f 184 183 188
f 185 184 189
f 186 185 190
f 187 136 192
f 188 187 193
f 189 188 194
f 190 189 195
f 191 190 196
f 192 142 198
f 193 192 199
f 194 193 200
f 195 194 201
f 196 195 202
f 197 196 203
f 198 149 205
f 199 198 206
f 200 199 207
f 201 200 208
f 202 201 209
f 203 202 210
f 204 203 211
f 205 157 213
f 206 205 214
f 207 206 215
f 208 207 216
f 209 208 217
f 210 209 218
f 211 210 219
f 212 211 220
f 213 166 222
f 214 213 223
f 215 214 224
f 216 215 225
f 217 216 226
f 218 217 227
f 219 218 228
f 220 219 229
f 221 220 230
f 2 1 177
f 232 177 179
f 4 2 232
f 233 179 182
f 234 232 233
f 7 4 234
f 235 182 186
f 236 233 235
f 237 234 236
f 11 7 237
f 238 186 191
f 239 235 238
f 240 236 239
f 241 237 240
f 16 11 241
f 242 191 197
f 243 238 242
f 244 239 243
f 245 240 244
f 246 241 245
f 22 16 246
f 247 197 204
f 248 242 247
f 249 243 248
f 250 244 249
f 251 245 250
f 252 246 251
f 29 22 252
f 253 204 212
f 254 247 253
f 255 248 254
f 256 249 255
f 257 250 256
f 258 251 257
f 259 252 258
f 37 29 259
f 260 212 221
f 261 253 260
f 262 254 261
f 263 255 262
f 264 256 263
f 265 257 264
f 266 258 265
f 267 259 266
f 46 37 267
f 268 221 231
f 269 260 268
f 270 261 269
f 271 262 270
f 272 263 271
f 273 264 272
f 274 265 273
f 275 266 274
f 276 267 275
f 56 46 276
f 2 177 232
f 232 179 233
f 4 232 234
f 233 182 235
f 234 233 236
f 7 234 237
f 235 186 238
f 236 235 239
f 237 236 240
f 11 237 241
f 238 191 242
f 239 238 243
f 240 239 244
f 241 240 245
f 16 241 246
f 242 197 247
f 243 242 248
f 244 243 249
f 245 244 250
f 246 245 251
f 22 246 252
f 247 204 253
f 248 247 254
f 249 248 255
f 250 249 256
f 251 250 257
f 252 251 258
f 29 252 259
f 253 212 260
f 254 253 261
f 255 254 262
f 256 255 263
f 257 256 264
f 258 257 265
f 259 258 266
f 37 259 267
f 260 221 268
f 261 260 269
f 262 261 270
f 263 262 271
f 264 263 272
f 265 264 273
f 266 265 274
f 267 266 275
f 46 267 276
f 277 56 276
f 278 276 275
f 279 277 278
f 280 275 274
f 281 278 280
f 282 279 281
f 283 274 273
f 284 280 283
f 285 281 284
f 286 282 285
f 287 273 272
f 288 283 287
f 289 284 288
f 290 285 289
f 291 286 290
f 292 272 271
f 293 287 292
f 294 288 293
f 295 289 294
f 296 290 295
f 297 291 296
f 298 271 270
f 299 292 298
f 300 293 299
f 301 294 300
f 302 295 301
f 303 296 302
f 304 297 303
f 305 270 269
f 306 298 305
f 307 299 306
f 308 300 307
f 309 301 308
f 310 302 309
f 311 303 310
f 312 304 311
f 313 269 268
f 314 305 313
f 315 306 314
f 316 307 315
f 317 308 316
f 318 309 317
f 319 310 318
f 320 311 319
f 321 312 320
f 322 268 231
f 323 313 322
f 324 314 323
f 325 315 324
f 326 316 325
f 327 317 326
f 328 318 327
f 329 319 328
f 330 320 329
f 331 321 330
f 277 276 278
f 278 275 280
f 279 278 281
f 280 274 283
f 281 280 284
f 282 281 285
f 283 273 287
f 284 283 288
f 285 284 289
f 286 285 290
f 287 272 292
f 288 287 293
f 289 288 294
f 290 289 295
f 291 290 296
f 292 271 298
f 293 292 299
f 294 293 300
f 295 294 301
f 296 295 302
f 297 296 303
f 298 270 305
f 299 298 306
f 300 299 307
f 301 300 308
f 302 301 309
f 303 302 310
f 304 303 311
f 305 269 313
f 306 305 314
f 307 306 315
f 308 307 316
f 309 308 317
f 310 309 318
f 311 310 319
f 312 311 320
f 313 268 322
f 314 313 323
f 315 314 324
f 316 315 325
f 317 316 326
f 318 317 327
f 319 318 328
f 320 319 329
f 321 320 330
f 332 231 230
f 333 230 229
f 334 332 333
f 335 229 228
f 336 333 335
f 337 334 336
f 338 228 227
f 339 335 338
f 340 336 339
f 341 337 340
f 342 227 226
f 343 338 342
f 344 339 343
f 345 340 344
f 346 341 345
f 347 226 225
f 348 342 347
f 349 343 348
f 350 344 349
f 351 345 350
f 352 346 351
f 353 225 224
f 354 347 353
f 355 348 354
f 356 349 355
f 357 350 356
f 358 351 357
f 359 352 358
f 360 224 223
f 361 353 360
f 362 354 361
f 363 355 362
f 364 356 363
f 365 357 364
f 366 358 365
f 367 359 366
f 368 223 222
f 369 360 368
f 370 361 369
f 371 362 370
f 372 363 371
f 373 364 372
f 374 365 373
f 375 366 374
f 376 367 375
f 377 222 176
f 378 368 377
f 379 369 378
f 380 370 379
f 381 371 380
f 382 372 381
f 383 373 382
f 384 374 383
f 385 375 384
f 386 376 385
f 332 230 333
f 333 229 335
f 334 333 336
f 335 228 338
f 336 335 339
f 337 336 340
f 338 227 342
f 339 338 343
f 340 339 344
f 341 340 345
f 342 226 347
f 343 342 348
f 344 343 349
f 345 344 350
f 346 345 351
f 347 225 353
f 348 347 354
f 349 348 355
f 350 349 356
f 351 350 357
f 352 351 358
f 353 224 360
f 354 353 361
f 355 354 362
f 356 355 363
f 357 356 364
f 358 357 365
f 359 358 366
f 360 223 368
f 361 360 369
f 362 361 370
f 363 362 371
f 364 363 372
f 365 364 373
f 366 365 374
f 367 366 375
f 368 222 377
f 369 368 378
f 370 369 379
f 371 370 380
f 372 371 381
f 373 372 382
f 374 373 383
f 375 374 384
f 376 375 385
f 387 176 175
f 388 175 174
f 389 387 388
f 390 174 173
f 391 388 390
f 392 389 391
f 393 173 172
f 394 390 393
f 395 391 394
f 396 392 395
f 397 172 171
f 398 393 397
f 399 394 398
f 400 395 399
f 401 396 400
f 402 171 170
f 403 397 402
f 404 398 403
f 405 399 404
f 406 400 405
f 407 401 406
f 408 170 169
f 409 402 408
f 410 403 409
f 411 404 410
f 412 405 411
f 413 406 412
f 414 407 413
f 415 169 168
f 416 408 415
f 417 409 416
f 418 410 417
f 419 411 418
f 420 412 419
f 421 413 420
f 422 414 421
f 423 168 167
f 424 415 423
f 425 416 424
f 426 417 425
f 427 418 426
f 428 419 427
f 429 420 428
f 430 421 429
f 431 422 430
f 432 167 121
f 433 423 432
f 434 424 433
f 435 425 434
f 436 426 435
f 437 427 436
f 438 428 437
f 439 429 438
f 440 430 439
f 441 431 440
f 387 175 388
f 388 174 390
f 389 388 391
f 390 173 393
f 391 390 394
f 392 391 395
f 393 172 397
f 394 393 398
f 395 394 399
f 396 395 400
f 397 171 402
f 398 397 403
f 399 398 404
f 400 399 405
f 401 400 406
f 402 170 408
f 403 402 409
f 404 403 410
f 405 404 411
f 406 405 412
f 407 406 413
f 408 169 415
f 409 408 416
f 410 409 417
f 411 410 418
f 412 411 419
f 413 412 420
f 414 413 421
f 415 168 423
f 416 415 424
f 417 416 425
f 418 417 426
f 419 418 427
f 420 419 428
f 421 420 429
f 422 421 430
f 423 167 432
f 424 423 433
f 425 424 434
f 426 425 435
f 427 426 436
f 428 427 437
f 429 428 438
f 430 429 439
f 431 430 440
f 442 121 120
f 443 120 119
f 444 442 443
f 445 119 118
f 446 443 445
f 447 444 446
f 448 118 117
f 449 445 448
f 450 446 449
f 451 447 450
f 452 117 116
f 453 448 452
f 454 449 453
f 455 450 454
f 456 451 455
f 457 116 115
f 458 452 457
f 459 453 458
f 460 454 459
f 461 455 460
f 462 456 461
f 463 115 114
f 464 457 463
f 465 458 464
f 466 459 465
f 467 460 466
f 468 461 467
f 469 462 468
f 470 114 113
f 471 463 470
f 472 464 471
f 473 465 472
f 474 466 473
f 475 467 474
f 476 468 475
f 477 469 476
f 478 113 112
f 479 470 478
f 480 471 479
f 481 472 480
f 482 473 481
f 483 474 482
f 484 475 483
f 485 476 484
f 486 477 485
f 487 112 66
f 488 478 487
f 489 479 488
f 490 480 489
f 491 481 490
f 492 482 491
f 493 483 492
f 494 484 493
f 495 485 494
f 496 486 495
f 442 120 443
f 443 119 445
f 444 443 446
f 445 118 448
f 446 445 449
f 447 446 450
f 448 117 452
f 449 448 453
f 450 449 454
f 451 450 455
f 452 116 457
f 453 452 458
f 454 453 459
f 455 454 460
f 456 455 461
f 457 115 463
f 458 457 464
f 459 458 465
f 460 459 466
f 461 460 467
f 462 461 468
f 463 114 470
f 464 463 471
f 465 464 472
f 466 465 473
f 467 466 474
f 468 467 475
f 469 468 476
f 470 113 478
f 471 470 479
f 472 471 480
f 473 472 481
f 474 473 482
f 475 474 483
f 476 475 484
f 477 476 485
f 478 112 487
f 479 478 488
f 480 479 489
f 481 480 490
f 482 481 491
f 483 482 492
f 484 483 493
f 485 484 494
f 486 485 495
f 497 66 65
f 498 65 64
f 499 497 498
f 500 64 63
f 501 498 500
f 502 499 501
f 503 63 62
f 504 500 503
f 505 501 504
f 506 502 505
f 507 62 61
f 508 503 507
f 509 504 508
f 510 505 509
f 511 506 510
f 512 61 60
f 513 507 512
f 514 508 513
f 515 509 514
f 516 510 515
f 517 511 516
f 518 60 59
f 519 512 518
f 520 513 519
f 521 514 520
f 522 515 521
f 523 516 522
f 524 517 523
f 525 59 58
f 526 518 525
f 527 519 526
f 528 520 527
f 529 521 528
f 530 522 529
f 531 523 530
f 532 524 531
f 533 58 57
f 534 525 533
f 535 526 534
f 536 527 535
f 537 528 536
f 538 529 537
f 539 530 538
f 540 531 539
f 541 532 540
f 542 57 56
f 543 533 542
f 544 534 543
f 545 535 544
f 546 536 545
f 547 537 546
f 548 538 547
f 549 539 548
f 550 540 549
f 551 541 550
f 497 65 498
f 498 64 500
f 499 498 501
f 500 63 503
f 501 500 504
f 502 501 505
f 503 62 507
f 504 503 508
f 505 504 509
f 506 505 510
f 507 61 512
f 508 507 513
f 509 508 514
f 510 509 515
f 511 510 516
f 512 60 518
f 513 512 519
f 514 513 520
f 515 514 521
f 516 515 522
f 517 516 523
f 518 59 525
f 519 518 526
f 520 519 527
f 521 520 528
f 522 521 529
f 523 522 530
f 524 523 531
f 525 58 533
f 526 525 534
f 527 526 535
f 528 527 536
f 529 528 537
f 530 529 538
f 531 530 539
f 532 531 540
f 533 57 542
f 534 533 543
f 535 534 544
f 536 535 545
f 537 536 546
f 538 537 547
f 539 538 548
f 540 539 549
f 541 540 550
f 542 56 277
f 552 277 279
f 543 542 552
f 553 279 282
f 554 552 553
f 544 543 554
f 555 282 286
f 556 553 555
f 557 554 556
f 545 544 557
f 558 286 291
f 559 555 558
f 560 556 559
f 561 557 560
f 546 545 561
f 562 291 297
f 563 558 562
f 564 559 563
f 565 560 564
f 566 561 565
f 547 546 566
f 567 297 304
f 568 562 567
f 569 563 568
f 570 564 569
f 571 565 570
f 572 566 571
f 548 547 572
f 573 304 312
f 574 567 573
f 575 568 574
f 576 569 575
f 577 570 576
f 578 571 577
f 579 572 578
f 549 548 579
f 580 312 321
f 581 573 580
f 582 574 581
f 583 575 582
f 584 576 583
f 585 577 584
f 586 578 585
f 587 579 586
f 550 549 587
f 588 321 331
f 589 580 588
f 590 581 589
f 591 582 590
f 592 583 591
f 593 584 592
f 594 585 593
f 595 586 594
f 596 587 595
f 551 550 596
f 542 277 552
f 552 279 553
f 543 552 554
f 553 282 555
f 554 553 556
f 544 554 557
f 555 286 558
f 556 555 559
f 557 556 560
f 545 557 561
f 558 291 562
f 559 558 563
f 560 559 564
f 561 560 565
f 546 561 566
f 562 297 567
f 563 562 568
f 564 563 569
f 565 564 570
f 566 565 571
f 547 566 572
f 567 304 573
f 568 567 574
f 569 568 575
f 570 569 576
f 571 570 577
f 572 571 578
f 548 572 579
f 573 312 580
f 574 573 581
f 575 574 582
f 576 575 583
f 577 576 584
f 578 577 585
f 579 578 586
f 549 579 587
f 580 321 588
f 581 580 589
f 582 581 590
f 583 582 591
f 584 583 592
f 585 584 593
f 586 585 594
f 587 586 595
f 550 587 596
f 322 231 332
f 597 332 334
f 323 322 597
f 598 334 337
f 599 597 598
f 324 323 599
f 600 337 341
f 601 598 600
f 602 599 601
f 325 324 602
f 603 341 346
f 604 600 603
f 605 601 604
f 606 602 605
f 326 325 606
f 607 346 352
f 608 603 607
f 609 604 608
f 610 605 609
f 611 606 610
f 327 326 611
f 612 352 359
f 613 607 612
f 614 608 613
f 615 609 614
f 616 610 615
f 617 611 616
f 328 327 617
f 618 359 367
f 619 612 618
f 620 613 619
f 621 614 620
f 622 615 621
f 623 616 622
f 624 617 623
f 329 328 624
f 625 367 376
f 626 618 625
f 627 619 626
f 628 620 627
f 629 621 628
f 630 622 629
f 631 623 630
f 632 624 631
f 330 329 632
f 633 376 386
f 634 625 633
f 635 626 634
f 636 627 635
f 637 628 636
f 638 629 637
f 639 630 638
f 640 631 639
f 641 632 640
f 331 330 641
f 322 332 597
f 597 334 598
f 323 597 599
f 598 337 600
f 599 598 601
f 324 599 602
f 600 341 603
f 601 600 604
f 602 601 605
f 325 602 606
f 603 346 607
f 604 603 608
f 605 604 609
f 606 605 610
f 326 606 611
f 607 352 612
f 608 607 613
f 609 608 614
f 610 609 615
f 611 610 616
f 327 611 617
f 612 359 618
f 613 612 619
f 614 613 620
f 615 614 621
f 616 615 622
f 617 616 623
f 328 617 624
f 618 367 625
f 619 618 626
f 620 619 627
f 621 620 628
f 622 621 629
f 623 622 630
f 624 623 631
f 329 624 632
f 625 376 633
f 626 625 634
f 627 626 635
f 628 627 636
f 629 628 637
f 630 629 638
f 631 630 639
f 632 631 640
f 330 632 641
f 377 176 387
f 642 387 389
f 378 377 642
f 643 389 392
f 644 642 643
f 379 378 644
f 645 392 396
f 646 643 645
f 647 644 646
f 380 379 647
f 648 396 401
f 649 645 648
f 650 646 649
f 651 647 650
f 381 380 651
f 652 401 407
f 653 648 652
f 654 649 653
f 655 650 654
f 656 651 655
f 382 381 656
f 657 407 414
f 658 652 657
f 659 653 658
f 660 654 659
f 661 655 660
f 662 656 661
f 383 382 662
f 663 414 422
f 664 657 663
f 665 658 664
f 666 659 665
f 667 660 666
f 668 661 667
f 669 662 668
f 384 383 669
f 670 422 431
f 671 663 670
f 672 664 671
f 673 665 672
f 674 666 673
f 675 667 674
f 676 668 675
f 677 669 676
f 385 384 677
f 678 431 441
f 679 670 678
f 680 671 679
f 681 672 680
f 682 673 681
f 683 674 682
f 684 675 683
f 685 676 684
f 686 677 685
f 386 385 686
f 377 387 642
f 642 389 643
f 378 642 644
f 643 392 645
f 644 643 646
f 379 644 647
f 645 396 648
f 646 645 649
f 647 646 650
f 380 647 651
f 648 401 652
f 649 648 653
f 650 649 654
f 651 650 655
f 381 651 656
f 652 407 657
f 653 652 658
f 654 653 659
f 655 654 660
f 656 655 661
f 382 656 662
f 657 414 663
f 658 657 664
f 659 658 665
f 660 659 666
f 661 660 667
f 662 661 668
f 383 662 669
f 663 422 670
f 664 663 671
f 665 664 672
f 666 665 673
f 667 666 674
f 668 667 675
f 669 668 676
f 384 669 677
f 670 431 678
f 671 670 679
f 672 671 680
f 673 672 681
f 674 673 682
f 675 674 683
f 676 675 684
f 677 676 685
f 385 677 686
f 432 121 442
f 687 442 444
f 433 432 687
f 688 444 447
f 689 687 688
f 434 433 689
f 690 447 451
f 691 688 690
f 692 689 691
f 435 434 692
f 693 451 456
f 694 690 693
f 695 691 694
f 696 692 695
f 436 435 696
f 697 456 462
f 698 693 697
f 699 694 698
f 700 695 699
f 701 696 700
f 437 436 701
f 702 462 469
f 703 697 702
f 704 698 703
f 705 699 704
f 706 700 705
f 707 701 706
f 438 437 707
f 708 469 477
f 709 702 708
f 710 703 709
f 711 704 710
f 712 705 711
f 713 706 712
f 714 707 713
f 439 438 714
f 715 477 486
f 716 708 715
f 717 709 716
f 718 710 717
f 719 711 718
f 720 712 719
f 721 713 720
f 722 714 721
f 440 439 722
f 723 486 496
f 724 715 723
f 725 716 724
f 726 717 725
f 727 718 726
f 728 719 727
f 729 720 728
f 730 721 729
f 731 722 730
f 441 440 731
f 432 442 687
f 687 444 688
f 433 687 689
f 688 447 690
f 689 688 691
f 434 689 692
f 690 451 693
f 691 690 694
f 692 691 695
f 435 692 696
f 693 456 697
f 694 693 698
f 695 694 699
f 696 695 700
f 436 696 701
f 697 462 702
f 698 697 703
f 699 698 704
f 700 699 705
f 701 700 706
f 437 701 707
f 702 469 708
f 703 702 709
f 704 703 710
f 705 704 711
f 706 705 712
f 707 706 713
f 438 707 714
f 708 477 715
f 709 708 716
f 710 709 717
f 711 710 718
f 712 711 719
f 713 712 720
f 714 713 721
f 439 714 722
f 715 486 723
f 716 715 724
f 717 716 725
f 718 717 726
f 719 718 727
f 720 719 728
f 721 720 729
f 722 721 730
f 440 722 731
f 487 66 497
f 732 497 499
f 488 487 732
f 733 499 502
f 734 732 733
f 489 488 734
f 735 502 506
f 736 733 735
f 737 734 736
f 490 489 737
f 738 506 511
f 739 735 738
f 740 736 739
f 741 737 740
f 491 490 741
f 742 511 517
f 743 738 742
f 744 739 743
f 745 740 744
f 746 741 745
f 492 491 746
f 747 517 524
f 748 742 747
f 749 743 748
f 750 744 749
f 751 745 750
f 752 746 751
f 493 492 752
f 753 524 532
f 754 747 753
f 755 748 754
f 756 749 755
f 757 750 756
f 758 751 757
f 759 752 758
f 494 493 759
f 760 532 541
f 761 753 760
f 762 754 761
f 763 755 762
f 764 756 763
f 765 757 764
f 766 758 765
f 767 759 766
f 495 494 767
f 768 541 551
f 769 760 768
f 770 761 769
f 771 762 770
f 772 763 771
f 773 764 772
f 774 765 773
f 775 766 774
f 776 767 775
f 496 495 776
f 487 497 732
f 732 499 733
f 488 732 734
f 733 502 735
f 734 733 736
f 489 734 737
f 735 506 738
f 736 735 739
f 737 736 740
f 490 737 741
f 738 511 742
f 739 738 743
f 740 739 744
f 741 740 745
f 491 741 746
f 742 517 747
f 743 742 748
f 744 743 749
f 745 744 750
f 746 745 751
f 492 746 752
f 747 524 753
f 748 747 754
f 749 748 755
f 750 749 756
f 751 750 757
f 752 751 758
f 493 752 759
f 753 532 760
f 754 753 761
f 755 754 762
f 756 755 763
f 757 756 764
f 758 757 765
f 759 758 766
f 494 759 767
f 760 541 768
f 761 760 769
f 762 761 770
f 763 762 771
f 764 763 772
f 765 764 773
f 766 765 774
f 767 766 775
f 495 767 776
f 779 777 778
f 781 778 780
f 782 779 781
f 784 780 783
f 785 781 784
f 786 782 785
f 788 783 787
f 789 784 788
f 790 785 789
f 791 786 790
f 793 787 792
f 794 788 793
f 795 789 794
f 796 790 795
f 797 791 796
f 799 792 798
f 800 793 799
f 801 794 800
f 802 795 801
f 803 796 802
f 804 797 803
f 806 798 805
f 807 799 806
f 808 800 807
f 809 801 808
f 810 802 809
f 811 803 810
f 812 804 811
f 814 805 813
f 815 806 814
f 816 807 815
f 817 808 816
f 818 809 817
f 819 810 818
f 820 811 819
f 821 812 820
f 823 813 822
f 824 814 823
f 825 815 824
f 826 816 825
f 827 817 826
f 828 818 827
f 829 819 828
f 830 820 829
f 831 821 830
f 596 822 551
f 595 823 596
f 594 824 595
f 593 825 594
f 592 826 593
f 591 827 592
f 590 828 591
f 589 829 590
f 588 830 589
f 331 831 588
f 779 778 781
f 781 780 784
f 782 781 785
f 784 783 788
f 785 784 789
f 786 785 790
f 788 787 793
f 789 788 794
f 790 789 795
f 791 790 796
f 793 792 799
f 794 793 800
f 795 794 801
f 796 795 802
f 797 796 803
f 799 798 806
f 800 799 807
f 801 800 808
f 802 801 809
f 803 802 810
f 804 803 811
f 806 805 814
f 807 806 815
f 808 807 816
f 809 808 817
f 810 809 818
f 811 810 819
f 812 811 820
f 814 813 823
f 815 814 824
f 816 815 825
f 817 816 826
f 818 817 827
f 819 818 828
f 820 819 829
f 821 820 830
f 823 822 596
f 824 823 595
f 825 824 594
f 826 825 593
f 827 826 592
f 828 827 591
f 829 828 590
f 830 829 589
f 831 830 588
f 778 777 832
f 834 832 833
f 780 778 834
f 836 833 835
f 837 834 836
f 783 780 837
f 839 835 838
f 840 836 839
f 841 837 840
f 787 783 841
f 843 838 842
f 844 839 843
f 845 840 844
f 846 841 845
f 792 787 846
f 848 842 847
f 849 843 848
f 850 844 849
f 851 845 850
f 852 846 851
f 798 792 852
f 854 847 853
f 855 848 854
f 856 849 855
f 857 850 856
f 858 851 857
f 859 852 858
f 805 798 859
f 861 853 860
f 862 854 861
f 863 855 862
f 864 856 863
f 865 857 864
f 866 858 865
f 867 859 866
f 813 805 867
f 869 860 868
f 870 861 869
f 871 862 870
f 872 863 871
f 873 864 872
f 874 865 873
f 875 866 874
f 876 867 875
f 822 813 876
f 776 868 496
f 775 869 776
f 774 870 775
f 773 871 774
f 772 872 773
f 771 873 772
f 770 874 771
f 769 875 770
f 768 876 769
f 551 822 768
f 778 832 834
f 834 833 836
f 780 834 837
f 836 835 839
f 837 836 840
f 783 837 841
f 839 838 843
f 840 839 844
f 841 840 845
f 787 841 846
f 843 842 848
f 844 843 849
f 845 844 850
f 846 845 851
f 792 846 852
f 848 847 854
f 849 848 855
f 850 849 856
f 851 850 857
f 852 851 858
f 798 852 859
f 854 853 861
f 855 854 862
f 856 855 863
f 857 856 864
f 858 857 865
f 859 858 866
f 805 859 867
f 861 860 869
f 862 861 870
f 863 862 871
f 864 863 872
f 865 864 873
f 866 865 874
f 867 866 875
f 813 867 876
f 869 868 776
f 870 869 775
f 871 870 774
f 872 871 773
f 873 872 772
f 874 873 771
f 875 874 770
f 876 875 769
f 822 876 768
f 832 777 877
f 879 877 878
f 833 832 879
f 881 878 880
f 882 879 881
f 835 833 882
f 884 880 883
f 885 881 884
f 886 882 885
f 838 835 886
f 888 883 887
f 889 884 888
f 890 885 889
f 891 886 890
f 842 838 891
f 893 887 892
f 894 888 893
f 895 889 894
f 896 890 895
f 897 891 896
f 847 842 897
f 899 892 898
f 900 893 899
f 901 894 900
f 902 895 901
f 903 896 902
f 904 897 903
f 853 847 904
f 906 898 905
f 907 899 906
f 908 900 907
f 909 901 908
f 910 902 909
f 911 903 910
f 912 904 911
f 860 853 912
f 914 905 913
f 915 906 914
f 916 907 915
f 917 908 916
f 918 909 917
f 919 910 918
f 920 911 919
f 921 912 920
f 868 860 921
f 731 913 441
f 730 914 731
f 729 915 730
f 728 916 729
f 727 917 728
f 726 918 727
f 725 919 726
f 724 920 725
f 723 921 724
f 496 868 723
f 832 877 879
f 879 878 881
f 833 879 882
f 881 880 884
f 882 881 885
f 835 882 886
f 884 883 888
f 885 884 889
f 886 885 890
f 838 886 891
f 888 887 893
f 889 888 894
f 890 889 895
f 891 890 896
f 842 891 897
f 893 892 899
f 894 893 900
f 895 894 901
f 896 895 902
f 897 896 903
f 847 897 904
f 899 898 906
f 900 899 907
f 901 900 908
f 902 901 909
f 903 902 910
f 904 903 911
f 853 904 912
f 906 905 914
f 907 906 915
f 908 907 916
f 909 908 917
f 910 909 918
f 911 910 919
f 912 911 920
f 860 912 921
f 914 913 731
f 915 914 730
f 916 915 729
f 917 916 728
f 918 917 727
f 919 918 726
f 920 919 725
f 921 920 724
f 868 921 723
f 877 777 922
f 924 922 923
f 878 877 924
f 926 923 925
f 927 924 926
f 880 878 927
f 929 925 928
f 930 926 929
f 931 927 930
f 883 880 931
f 933 928 932
f 934 929 933
f 935 930 934
f 936 931 935
f 887 883 936
f 938 932 937
f 939 933 938
f 940 934 939
f 941 935 940
f 942 936 941
f 892 887 942
f 944 937 943
f 945 938 944
f 946 939 945
f 947 940 946
f 948 941 947
f 949 942 948
f 898 892 949
f 951 943 950
f 952 944 951
f 953 945 952
f 954 946 953
f 955 947 954
f 956 948 955
f 957 949 956
f 905 898 957
f 959 950 958
f 960 951 959
f 961 952 960
f 962 953 961
f 963 954 962
f 964 955 963
f 965 956 964
f 966 957 965
f 913 905 966
f 686 958 386
f 685 959 686
f 684 960 685
f 683 961 684
f 682 962 683
f 681 963 682
f 680 964 681
f 679 965 680
f 678 966 679
f 441 913 678
f 877 922 924
f 924 923 926
f 878 924 927
f 926 925 929
f 927 926 930
f 880 927 931
f 929 928 933
f 930 929 934
f 931 930 935
f 883 931 936
f 933 932 938
f 934 933 939
f 935 934 940
f 936 935 941
f 887 936 942
f 938 937 944
f 939 938 945
f 940 939 946
f 941 940 947
f 942 941 948
f 892 942 949
f 944 943 951
f 945 944 952
f 946 945 953
f 947 946 954
f 948 947 955
f 949 948 956
f 898 949 957
f 951 950 959
f 952 951 960
f 953 952 961
f 954 953 962
f 955 954 963
f 956 955 964
f 957 956 965
f 905 957 966
f 959 958 686
f 960 959 685
f 961 960 684
f 962 961 683
f 963 962 682
f 964 963 681
f 965 964 680
f 966 965 679
f 913 966 678
f 922 777 779
f 967 779 782
f 923 922 967
f 968 782 786
f 969 967 968
f 925 923 969
f 970 786 791
f 971 968 970
f 972 969 971
f 928 925 972
f 973 791 797
f 974 970 973
f 975 971 974
f 976 972 975
f 932 928 976
f 977 797 804
f 978 973 977
f 979 974 978
f 980 975 979
f 981 976 980
f 937 932 981
f 982 804 812
f 983 977 982
f 984 978 983
f 985 979 984
f 986 980 985
f 987 981 986
f 943 937 987
f 988 812 821
f 989 982 988
f 990 983 989
f 991 984 990
f 992 985 991
f 993 986 992
f 994 987 993
f 950 943 994
f 995 821 831
f 996 988 995
f 997 989 996
f 998 990 997
f 999 991 998
f 1000 992 999
f 1001 993 1000
f 1002 994 1001
f 958 950 1002
f 641 831 331
f 640 995 641
f 639 996 640
f 638 997 639
f 637 998 638
f 636 999 637
f 635 1000 636
f 634 1001 635
f 633 1002 634
f 386 958 633
f 922 779 967
f 967 782 968
f 923 967 969
f 968 786 970
f 969 968 971
f 925 969 972
f 970 791 973
f 971 970 974
f 972 971 975
f 928 972 976
f 973 797 977
f 974 973 978
f 975 974 979
f 976 975 980
f 932 976 981
f 977 804 982
f 978 977 983
f 979 978 984
f 980 979 985
f 981 980 986
f 937 981 987
f 982 812 988
f 983 982 989
f 984 983 990
f 985 984 991
f 986 985 992
f 987 986 993
f 943 987 994
f 988 821 995
f 989 988 996
f 990 989 997
f 991 990 998
f 992 991 999
f 993 992 1000
f 994 993 1001
f 950 994 1002
f 995 831 641
f 996 995 640
f 997 996 639
f 998 997 638
f 999 998 637
f 1000 999 636
f 1001 1000 635
f 1002 1001 634
f 958 1002 633
